<svg xmlns="http://www.w3.org/2000/svg" viewBox="0 0 128 45"><defs><style>.cls-1{fill:none;}.cls-2{fill:#3d7a99;}.cls-3{fill:#3d5363;}.cls-4{fill:#fff;}</style></defs><title>Blue Key</title><g id="Layer_25" data-name="Layer 25"><path class="cls-1" d="M22.5,9.5A13,13,0,0,0,9.59,21H35.41A13,13,0,0,0,22.5,9.5Z"/><path class="cls-1" d="M9.5,22.5a13,13,0,0,0,26,0,14.74,14.74,0,0,0-.09-1.5H9.59A14.74,14.74,0,0,0,9.5,22.5Z"/><path class="cls-2" d="M22.5,9.5A13,13,0,0,1,35.41,21H127.5V20a3.5,3.5,0,0,0-3.5-3.5H49A3.5,3.5,0,0,1,45.5,13V11A3.5,3.5,0,0,0,42,7.5H39.27A22.49,22.49,0,0,0,.06,21H9.59A13,13,0,0,1,22.5,9.5Z"/><path class="cls-3" d="M35.41,21a14.74,14.74,0,0,1,.09,1.5,13,13,0,0,1-26,0A14.74,14.74,0,0,1,9.59,21H.06Q0,21.75,0,22.5A22.49,22.49,0,0,0,38.81,38H42a3.5,3.5,0,0,0,3.5-3.5v-2A3.5,3.5,0,0,1,49,29H97a3.5,3.5,0,0,1,3.5,3.5v7A3.5,3.5,0,0,0,104,43h3a3.5,3.5,0,0,0,3.5-3.5v-7a3.5,3.5,0,0,1,7,0v7A3.5,3.5,0,0,0,121,43h3a3.5,3.5,0,0,0,3.5-3.5V21Z"/><rect class="cls-4" x="56" y="20" width="63" height="3" rx="1.5"/><rect class="cls-4" x="121" y="20" width="4" height="3" rx="1.5"/><rect class="cls-4" x="47" y="20" width="7" height="3" rx="1.5"/><path class="cls-4" d="M37.45,11.43l.33.42-.24-.31c.3.38.57.77.84,1.17a1.18,1.18,0,0,0,.38.42,1.26,1.26,0,0,0,.51.27,1.73,1.73,0,0,0,1.16-.16,1.5,1.5,0,0,0,.69-.89l.05-.4a1.57,1.57,0,0,0-.2-.76c-.44-.65-.91-1.28-1.4-1.88A1.11,1.11,0,0,0,39.08,9a1,1,0,0,0-.57-.13,1.06,1.06,0,0,0-.58.13,1,1,0,0,0-.48.31A1.46,1.46,0,0,0,37,10.37l.05.4a1.49,1.49,0,0,0,.39.66Z"/><path class="cls-4" d="M4.5,23A18.49,18.49,0,0,1,32.72,7.26a1.5,1.5,0,0,0,1.51-2.59,21.74,21.74,0,0,0-22-.26A21.78,21.78,0,0,0,1.5,23a1.5,1.5,0,0,0,3,0Z"/></g></svg>