<svg xmlns="http://www.w3.org/2000/svg" viewBox="0 0 195 118"><defs><style>.cls-1{fill:#527689;}.cls-2{fill:#466477;}.cls-3{fill:#fff;}.cls-4{fill:#476172;}.cls-5{fill:#434954;}.cls-6{fill:#525866;}.cls-7{fill:#3d5363;}.cls-8{fill:#b4c8bc;}</style></defs><title>Closed Blue Chest</title><g id="Layer_25" data-name="Layer 25"><rect class="cls-1" x="90" y="43" width="101" height="75"/><path class="cls-2" d="M39,42.5h0A25.5,25.5,0,0,1,64.5,17h101C179.59,17,191,28.92,191,43H39"/><rect class="cls-3" x="96.98" y="13.02" width="4.3" height="20.26" rx="2.15" transform="translate(122.28 -75.98) rotate(90)"/><rect class="cls-3" x="119.7" y="21" width="4.3" height="4.3" rx="2.15" transform="translate(145 -98.7) rotate(90)"/><rect class="cls-3" x="112.33" y="21" width="4.3" height="4.3" rx="2.15" transform="translate(137.63 -91.33) rotate(90)"/><rect class="cls-4" x="39" y="43" width="51" height="75"/><rect class="cls-5" x="43" y="43" width="43" height="71"/><rect class="cls-6" x="94" y="43" width="93" height="71"/><path class="cls-1" d="M64.5,17A25.5,25.5,0,0,0,39,42.5V43H90v-.5A25.5,25.5,0,0,0,64.5,17Z"/><path class="cls-5" d="M64.5,21A21.58,21.58,0,0,0,42.92,42.58V43H86.08v-.42A21.58,21.58,0,0,0,64.5,21Z"/><path class="cls-1" d="M95,42.5a4.23,4.23,0,0,1,0,.5H195a4.23,4.23,0,0,0,.05-.5,4.49,4.49,0,0,0-4.5-4.5H90.5A4.49,4.49,0,0,1,95,42.5Z"/><path class="cls-4" d="M95,43a4.48,4.48,0,0,1-4.45,4h100A4.48,4.48,0,0,0,195,43Z"/><path class="cls-7" d="M95,43H35.05a4.48,4.48,0,0,0,4.45,4h51A4.48,4.48,0,0,0,95,43Z"/><path class="cls-2" d="M95,42.5A4.49,4.49,0,0,0,90.5,38h-51A4.49,4.49,0,0,0,35,42.5a4.23,4.23,0,0,0,0,.5H95A4.23,4.23,0,0,0,95,42.5Z"/><rect class="cls-8" x="99" y="68" width="84" height="4" rx="1.95"/><rect class="cls-8" x="99" y="99" width="84" height="4" rx="1.95"/><rect class="cls-7" x="133" y="35" width="18.17" height="15" rx="4.43"/><rect class="cls-8" x="133.83" y="35" width="18.17" height="15" rx="4.43"/><rect class="cls-7" x="140.12" y="39" width="6.41" height="7" rx="1.6"/><circle class="cls-1" cx="166" cy="23" r="2"/><circle class="cls-1" cx="124" cy="29" r="2"/><circle class="cls-1" cx="84" cy="21" r="2"/><circle class="cls-1" cx="111.73" cy="31.65" r="1.27"/><circle class="cls-1" cx="165.73" cy="30.65" r="1.27"/><circle class="cls-1" cx="141.73" cy="23.65" r="1.27"/><circle class="cls-2" cx="52.5" cy="52.5" r="3.5"/><circle class="cls-2" cx="79.5" cy="107.5" r="3.5"/><circle class="cls-2" cx="73" cy="33" r="2"/><circle class="cls-2" cx="66" cy="93" r="2"/><circle class="cls-2" cx="76" cy="59" r="2"/><circle class="cls-2" cx="57.73" cy="108.65" r="1.27"/><circle class="cls-2" cx="81.73" cy="48.65" r="1.27"/><circle class="cls-2" cx="54.73" cy="86.65" r="1.27"/><circle class="cls-2" cx="67.73" cy="26.65" r="1.27"/><circle class="cls-2" cx="53.73" cy="30.65" r="1.27"/><circle class="cls-2" cx="77.73" cy="86.65" r="1.27"/><circle class="cls-1" cx="103" cy="111" r="2"/><circle class="cls-1" cx="108.5" cy="57.5" r="3.5"/><circle class="cls-1" cx="176.5" cy="110.5" r="3.5"/><circle class="cls-1" cx="162" cy="86" r="2"/><circle class="cls-1" cx="172" cy="56" r="2"/><circle class="cls-1" cx="117.73" cy="85.65" r="1.27"/><circle class="cls-1" cx="141.73" cy="104.65" r="1.27"/><circle class="cls-1" cx="140.73" cy="60.65" r="1.27"/><circle class="cls-1" cx="178.73" cy="82.65" r="1.27"/><rect class="cls-3" x="169.3" y="30.7" width="2.3" height="18.9" rx="1.15" transform="translate(210.6 -130.3) rotate(90)"/><rect class="cls-3" x="183.62" y="38.15" width="2.3" height="4.01" rx="1.15" transform="translate(224.92 -144.62) rotate(90)"/><rect class="cls-3" x="174.62" y="67.15" width="2.3" height="4.01" rx="1.15" transform="translate(244.92 -106.62) rotate(90)"/><rect class="cls-3" x="112.3" y="90.7" width="2.3" height="18.9" rx="1.15" transform="translate(213.6 -13.3) rotate(90)"/><rect class="cls-3" x="147.19" y="35.35" width="2.65" height="2.65" rx="1.32" transform="translate(185.19 -111.84) rotate(90)"/><rect class="cls-3" x="140.82" y="33.53" width="2.65" height="6.29" rx="1.32" transform="translate(178.82 -105.47) rotate(90)"/><rect class="cls-1" x="48" y="68" width="34" height="4" rx="1.95"/><rect class="cls-1" x="48" y="99" width="34" height="4" rx="1.95"/></g></svg>