<svg xmlns="http://www.w3.org/2000/svg" viewBox="0 0 195 118"><defs><style>.cls-1{fill:#3d5363;}.cls-2{fill:#b4c8bc;}.cls-3{fill:#434954;}.cls-4{fill:#527689;}.cls-5{fill:#466477;}.cls-6{fill:#755a5a;}.cls-7{fill:#fff;}.cls-8{fill:#476172;}.cls-9{fill:#525866;}</style></defs><title>Empty Blue Chest</title><g id="Layer_25" data-name="Layer 25"><rect class="cls-1" x="51.11" width="18.17" height="15" rx="4.43"/><rect class="cls-2" x="51.93" width="18.17" height="15" rx="4.43"/><rect class="cls-3" x="8.11" y="10" width="101" height="36"/><path class="cls-4" d="M7.41,46.19a25.51,25.51,0,0,0,36.07,0l.35-.35L7.77,9.78l-.36.35A25.5,25.5,0,0,0,7.41,46.19Z"/><path class="cls-3" d="M10.24,43.36a21.58,21.58,0,0,0,30.52,0l.3-.3L10.54,12.55l-.3.3A21.58,21.58,0,0,0,10.24,43.36Z"/><path class="cls-4" d="M108.41,46.19a25.51,25.51,0,0,0,36.07,0l.35-.35L108.77,9.78l-.36.35A25.5,25.5,0,0,0,108.41,46.19Z"/><path class="cls-3" d="M111.24,43.36a21.58,21.58,0,0,0,30.52,0l.3-.3L111.54,12.55l-.3.3A21.58,21.58,0,0,0,111.24,43.36Z"/><circle class="cls-5" cx="113.72" cy="28.87" r="2"/><circle class="cls-5" cx="112.95" cy="37.09" r="1.27"/><circle class="cls-6" cx="125.68" cy="44.16" r="1.27"/><circle class="cls-5" cx="50.61" cy="23.5" r="3.5"/><circle class="cls-5" cx="76.11" cy="37" r="2"/><circle class="cls-6" cx="55.84" cy="44.65" r="1.27"/><circle class="cls-5" cx="26.84" cy="13.65" r="1.27"/><circle class="cls-5" cx="89.84" cy="26.65" r="1.27"/><path class="cls-4" d="M109.44,5.76a2,2,0,0,1,.27-.22,4.52,4.52,0,0,0-2.1-.54H8.38l4.71,5h95.15A4.48,4.48,0,0,1,109.44,5.76Z"/><path class="cls-5" d="M111.26,6.89l-1-1a4.21,4.21,0,0,0-.57-.36,2,2,0,0,0-.27.22,4.48,4.48,0,0,0-1.2,4.24,4.41,4.41,0,0,0,1.16,2.12l35.85,36.27a4.5,4.5,0,0,0,6.37,0c.12-.12.21-.26.32-.39Z"/><path class="cls-5" d="M13.09,10,8.38,5h0l-.16.13L8,5.3a4.5,4.5,0,0,0-.19,6.37l35,37.1a4.51,4.51,0,0,0,6.37.18,3.79,3.79,0,0,0,.32-.38Z"/><rect class="cls-7" x="64.29" y="0.35" width="2.65" height="2.65" rx="1.32" transform="translate(67.29 -63.94) rotate(90)"/><rect class="cls-7" x="57.93" y="-1.47" width="2.65" height="6.29" rx="1.32" transform="matrix(0, 1, -1, 0, 60.93, -57.58)"/><rect class="cls-7" x="28.41" y="-2.3" width="2.3" height="18.9" rx="1.15" transform="translate(36.71 -22.4) rotate(90)"/><rect class="cls-7" x="42.73" y="5.15" width="2.3" height="4.01" rx="1.15" transform="translate(51.03 -36.72) rotate(90)"/><rect class="cls-1" x="58.23" y="4" width="6.41" height="7" rx="1.6"/><path class="cls-8" d="M95.06,43a4.49,4.49,0,0,1-4.45,4h100a4.49,4.49,0,0,0,4.45-4Z"/><rect class="cls-4" x="90.11" y="43" width="101" height="75"/><rect class="cls-8" x="39.11" y="43" width="51" height="75"/><rect class="cls-3" x="43.11" y="43" width="43" height="71"/><rect class="cls-9" x="94.11" y="43" width="93" height="71"/><rect class="cls-2" x="99.11" y="68" width="84" height="4" rx="1.95"/><rect class="cls-2" x="99.11" y="99" width="84" height="4" rx="1.95"/><circle class="cls-4" cx="108.61" cy="57.5" r="3.5"/><circle class="cls-4" cx="176.61" cy="110.5" r="3.5"/><circle class="cls-4" cx="162.11" cy="86" r="2"/><circle class="cls-4" cx="172.11" cy="56" r="2"/><circle class="cls-4" cx="103.11" cy="111" r="2"/><circle class="cls-4" cx="117.84" cy="85.65" r="1.27"/><circle class="cls-4" cx="141.84" cy="104.65" r="1.27"/><circle class="cls-4" cx="140.84" cy="60.65" r="1.27"/><circle class="cls-5" cx="12.72" cy="28.87" r="2"/><circle class="cls-5" cx="11.95" cy="37.09" r="1.27"/><circle class="cls-5" cx="24.68" cy="44.16" r="1.27"/><circle class="cls-5" cx="52.61" cy="52.5" r="3.5"/><circle class="cls-5" cx="79.61" cy="107.5" r="3.5"/><circle class="cls-5" cx="66.11" cy="93" r="2"/><circle class="cls-5" cx="76.11" cy="59" r="2"/><circle class="cls-5" cx="57.84" cy="108.65" r="1.27"/><circle class="cls-5" cx="81.84" cy="48.65" r="1.27"/><circle class="cls-5" cx="54.84" cy="86.65" r="1.27"/><circle class="cls-5" cx="77.84" cy="86.65" r="1.27"/><circle class="cls-4" cx="178.84" cy="82.65" r="1.27"/><rect class="cls-7" x="174.73" y="67.15" width="2.3" height="4.01" rx="1.15" transform="translate(245.03 -106.72) rotate(90)"/><rect class="cls-7" x="112.41" y="90.7" width="2.3" height="18.9" rx="1.15" transform="translate(213.71 -13.4) rotate(90)"/><rect class="cls-4" x="48.11" y="68" width="34" height="4" rx="1.95"/><rect class="cls-4" x="48.11" y="99" width="34" height="4" rx="1.95"/><path class="cls-1" d="M95.06,43H35.16a4.48,4.48,0,0,0,4.45,4h51A4.49,4.49,0,0,0,95.06,43Z"/><path class="cls-8" d="M95.06,43a4.49,4.49,0,0,1-4.45,4h100a4.49,4.49,0,0,0,4.45-4Z"/><path class="cls-1" d="M140,43h6.41a0,0,0,0,1,0,0v1.38a1.73,1.73,0,0,1-1.73,1.73h-2.94A1.73,1.73,0,0,1,140,44.38V43A0,0,0,0,1,140,43Z"/></g></svg>