<svg xmlns="http://www.w3.org/2000/svg" viewBox="0 0 195 118"><defs><style>.cls-1{fill:#3d5363;}.cls-2{fill:#b4c8bc;}.cls-3{fill:#434954;}.cls-4{fill:#527689;}.cls-5{fill:#755a5a;}.cls-6{fill:#466477;}.cls-7{fill:#fff;}.cls-8{fill:#476172;}.cls-9{fill:#525866;}.cls-10{fill:#d3950b;}.cls-11{fill:#f2b10f;}</style></defs><title>Full Blue Chest</title><g id="Layer_25" data-name="Layer 25"><rect class="cls-1" x="51.11" width="18.17" height="15" rx="4.43"/><rect class="cls-2" x="51.93" width="18.17" height="15" rx="4.43"/><rect class="cls-3" x="8.11" y="10" width="101" height="36"/><path class="cls-4" d="M7.41,46.19a25.51,25.51,0,0,0,36.07,0l.35-.35L7.77,9.78l-.36.35A25.5,25.5,0,0,0,7.41,46.19Z"/><path class="cls-3" d="M10.24,43.36a21.58,21.58,0,0,0,30.52,0l.3-.3L10.54,12.55l-.3.3A21.58,21.58,0,0,0,10.24,43.36Z"/><path class="cls-4" d="M108.41,46.19a25.51,25.51,0,0,0,36.07,0l.35-.35L108.77,9.78l-.36.35A25.5,25.5,0,0,0,108.41,46.19Z"/><path class="cls-3" d="M111.24,43.36a21.58,21.58,0,0,0,30.52,0l.3-.3L111.54,12.55l-.3.3A21.58,21.58,0,0,0,111.24,43.36Z"/><circle class="cls-5" cx="113.72" cy="28.87" r="2"/><circle class="cls-5" cx="112.95" cy="37.09" r="1.27"/><circle class="cls-5" cx="125.68" cy="44.16" r="1.27"/><circle class="cls-6" cx="50.61" cy="23.5" r="3.5"/><circle class="cls-5" cx="76.11" cy="37" r="2"/><circle class="cls-5" cx="55.84" cy="44.65" r="1.27"/><circle class="cls-6" cx="26.84" cy="13.65" r="1.27"/><circle class="cls-5" cx="89.84" cy="26.65" r="1.27"/><path class="cls-4" d="M109.44,5.76a2,2,0,0,1,.27-.22,4.52,4.52,0,0,0-2.1-.54H8.38l4.71,5h95.15A4.48,4.48,0,0,1,109.44,5.76Z"/><path class="cls-6" d="M111.26,6.89l-1-1a4.21,4.21,0,0,0-.57-.36,2,2,0,0,0-.27.22,4.48,4.48,0,0,0-1.2,4.24,4.41,4.41,0,0,0,1.16,2.12l35.85,36.27a4.5,4.5,0,0,0,6.37,0c.12-.12.21-.26.32-.39Z"/><path class="cls-6" d="M13.09,10,8.38,5h0l-.16.13L8,5.3a4.5,4.5,0,0,0-.19,6.37l35,37.1a4.51,4.51,0,0,0,6.37.18,3.79,3.79,0,0,0,.32-.38Z"/><rect class="cls-7" x="64.29" y="0.35" width="2.65" height="2.65" rx="1.32" transform="translate(67.29 -63.94) rotate(90)"/><rect class="cls-7" x="57.93" y="-1.47" width="2.65" height="6.29" rx="1.32" transform="matrix(0, 1, -1, 0, 60.93, -57.58)"/><rect class="cls-7" x="28.41" y="-2.3" width="2.3" height="18.9" rx="1.15" transform="translate(36.71 -22.4) rotate(90)"/><rect class="cls-7" x="42.73" y="5.15" width="2.3" height="4.01" rx="1.15" transform="translate(51.03 -36.72) rotate(90)"/><rect class="cls-1" x="58.23" y="4" width="6.41" height="7" rx="1.6"/><path class="cls-8" d="M95.06,43a4.49,4.49,0,0,1-4.45,4h100a4.49,4.49,0,0,0,4.45-4Z"/><rect class="cls-4" x="90.11" y="43" width="101" height="75"/><rect class="cls-8" x="39.11" y="43" width="51" height="75"/><rect class="cls-3" x="43.11" y="43" width="43" height="71"/><rect class="cls-9" x="94.11" y="43" width="93" height="71"/><rect class="cls-2" x="99.11" y="68" width="84" height="4" rx="1.95"/><rect class="cls-2" x="99.11" y="99" width="84" height="4" rx="1.95"/><circle class="cls-4" cx="108.61" cy="57.5" r="3.5"/><circle class="cls-4" cx="176.61" cy="110.5" r="3.5"/><circle class="cls-4" cx="162.11" cy="86" r="2"/><circle class="cls-4" cx="172.11" cy="56" r="2"/><circle class="cls-4" cx="103.11" cy="111" r="2"/><circle class="cls-4" cx="117.84" cy="85.65" r="1.27"/><circle class="cls-4" cx="141.84" cy="104.65" r="1.27"/><circle class="cls-4" cx="140.84" cy="60.65" r="1.27"/><circle class="cls-6" cx="12.72" cy="28.87" r="2"/><circle class="cls-6" cx="11.95" cy="37.09" r="1.27"/><circle class="cls-6" cx="24.68" cy="44.16" r="1.27"/><circle class="cls-6" cx="52.61" cy="52.5" r="3.5"/><circle class="cls-6" cx="79.61" cy="107.5" r="3.5"/><circle class="cls-6" cx="66.11" cy="93" r="2"/><circle class="cls-6" cx="76.11" cy="59" r="2"/><circle class="cls-6" cx="57.84" cy="108.65" r="1.27"/><circle class="cls-6" cx="81.84" cy="48.65" r="1.27"/><circle class="cls-6" cx="54.84" cy="86.65" r="1.27"/><circle class="cls-6" cx="77.84" cy="86.65" r="1.27"/><circle class="cls-4" cx="178.84" cy="82.65" r="1.27"/><rect class="cls-7" x="174.73" y="67.15" width="2.3" height="4.01" rx="1.15" transform="translate(245.03 -106.72) rotate(90)"/><rect class="cls-7" x="112.41" y="90.7" width="2.3" height="18.9" rx="1.15" transform="translate(213.71 -13.4) rotate(90)"/><rect class="cls-4" x="48.11" y="68" width="34" height="4" rx="1.95"/><rect class="cls-4" x="48.11" y="99" width="34" height="4" rx="1.95"/><path class="cls-1" d="M95.06,43H35.16a4.48,4.48,0,0,0,4.45,4h51A4.49,4.49,0,0,0,95.06,43Z"/><path class="cls-8" d="M95.06,43a4.49,4.49,0,0,1-4.45,4h100a4.49,4.49,0,0,0,4.45-4Z"/><path class="cls-1" d="M140,43h6.41a0,0,0,0,1,0,0v1.38a1.73,1.73,0,0,1-1.73,1.73h-2.94A1.73,1.73,0,0,1,140,44.38V43A0,0,0,0,1,140,43Z"/><path class="cls-10" d="M179,41.31a9,9,0,0,0-13.92-11c0-.11,0-.21,0-.32a9,9,0,0,0-13.46-7.81,9,9,0,0,0-17.4,1.25A9,9,0,0,0,128.11,21c-.32,0-.62,0-.93.05a9,9,0,0,0-16.62,1.14,9,9,0,0,0-11.45,2.16,9,9,0,0,0-10.62-2.59A9,9,0,0,0,72,21.05c-.3,0-.61-.05-.92-.05a9,9,0,0,0-9,9,8.9,8.9,0,0,0,1,4c-.32,0-.65,0-1,0a9,9,0,0,0-9,9H183.34A25.79,25.79,0,0,0,179,41.31Z"/><path class="cls-11" d="M168.11,36a9,9,0,0,0-3.33.64A9,9,0,1,0,148.05,43h28.83A9,9,0,0,0,168.11,36Z"/><path class="cls-11" d="M137.11,29a8.94,8.94,0,0,0-4.86,1.43,9,9,0,0,0-13.73,1.73,9,9,0,0,0-3.48-1.1,9.28,9.28,0,0,0,.07-1.06,9,9,0,0,0-18,0,8.89,8.89,0,0,0,1.07,4.26A8.93,8.93,0,0,0,96.11,40a9,9,0,0,0,.52,3h48a9,9,0,0,0-7.48-14Z"/><path class="cls-11" d="M85.67,32.14a9,9,0,1,0-15-3.12,9,9,0,0,0-7,14H92.88a9.36,9.36,0,0,0,.23-2A9,9,0,0,0,85.67,32.14Z"/><path class="cls-7" d="M143.9,19.76a3.41,3.41,0,0,1,3,2c.5,1.17,2.53.25,2-.91a5.57,5.57,0,0,0-4.9-3.06,1,1,0,1,0-.16,2Z"/><rect class="cls-7" x="148.12" y="22.66" width="2.11" height="2.11" rx="1.06" transform="translate(159.6 -126.98) rotate(84.92)"/><path class="cls-7" d="M157.9,25.76a3.41,3.41,0,0,1,3,2c.5,1.17,2.53.25,2-.91a5.57,5.57,0,0,0-4.9-3.06,1,1,0,1,0-.16,2Z"/><rect class="cls-7" x="162.12" y="28.66" width="2.11" height="2.11" rx="1.06" transform="translate(178.33 -135.45) rotate(84.92)"/><path class="cls-7" d="M84.9,36.76a3.41,3.41,0,0,1,3,2c.5,1.17,2.53.25,2-.91a5.57,5.57,0,0,0-4.9-3.06,1,1,0,1,0-.16,1.95Z"/><rect class="cls-7" x="89.12" y="39.66" width="2.11" height="2.11" rx="1.06" transform="translate(122.75 -52.71) rotate(84.92)"/><path class="cls-7" d="M114.9,35.76a3.41,3.41,0,0,1,3,2c.5,1.17,2.53.25,2-.91a5.57,5.57,0,0,0-4.9-3.06,1,1,0,1,0-.16,1.95Z"/><rect class="cls-7" x="119.12" y="38.66" width="2.11" height="2.11" rx="1.06" transform="translate(149.1 -83.51) rotate(84.92)"/><path class="cls-7" d="M107.9,24.76a3.41,3.41,0,0,1,3,2c.5,1.17,2.53.25,2-.91a5.57,5.57,0,0,0-4.9-3.06,1,1,0,1,0-.16,2Z"/><rect class="cls-7" x="112.12" y="27.66" width="2.11" height="2.11" rx="1.06" transform="translate(131.76 -86.56) rotate(84.92)"/><path class="cls-7" d="M171.9,33.76a3.41,3.41,0,0,1,3,2c.5,1.17,2.53.25,2-.91a5.57,5.57,0,0,0-4.9-3.06,1,1,0,1,0-.16,1.95Z"/><rect class="cls-7" x="176.12" y="36.66" width="2.11" height="2.11" rx="1.06" transform="matrix(0.09, 1, -1, 0.09, 199.06, -142.11)"/><path class="cls-7" d="M138.9,33.76a3.41,3.41,0,0,1,3,2c.5,1.17,2.53.25,2-.91a5.57,5.57,0,0,0-4.9-3.06,1,1,0,1,0-.16,1.95Z"/><rect class="cls-7" x="143.12" y="36.66" width="2.11" height="2.11" rx="1.06" transform="translate(168.98 -109.24) rotate(84.92)"/><path class="cls-7" d="M156.9,33.76a3.41,3.41,0,0,1,3,2c.5,1.17,2.53.25,2-.91a5.57,5.57,0,0,0-4.9-3.06,1,1,0,1,0-.16,1.95Z"/><rect class="cls-7" x="161.12" y="36.66" width="2.11" height="2.11" rx="1.06" transform="matrix(0.09, 1, -1, 0.09, 185.39, -127.16)"/><path class="cls-7" d="M169.9,40.76a3.41,3.41,0,0,1,3,2c.5,1.17,2.53.25,2-.91a5.57,5.57,0,0,0-4.9-3.06,1,1,0,1,0-.16,1.95Z"/><rect class="cls-7" x="174.12" y="43.66" width="2.11" height="2.11" rx="1.06" transform="matrix(0.09, 1, -1, 0.09, 204.21, -133.73)"/><path class="cls-7" d="M80.9,20.76a3.41,3.41,0,0,1,3,2c.5,1.17,2.53.25,2-.91a5.57,5.57,0,0,0-4.9-3.06,1,1,0,1,0-.16,2Z"/><rect class="cls-7" x="85.12" y="23.66" width="2.11" height="2.11" rx="1.06" transform="translate(103.17 -63.31) rotate(84.92)"/></g></svg>