<svg xmlns="http://www.w3.org/2000/svg" viewBox="0 0 71 71"><defs><style>.cls-1{fill:#698473;}.cls-2{fill:#a7d6ba;}.cls-3{fill:#fff;}.cls-4{fill:#8aa896;}.cls-5{fill:#455b4c;}</style></defs><title>Green Egg</title><g id="Layer_25" data-name="Layer 25"><path class="cls-1" d="M48.37,4.2C56,13.5,61,27.87,61,37.7A28.29,28.29,0,0,1,15.36,60.05,28.29,28.29,0,0,0,66,42.7C66,30.85,58.71,12.42,48.37,4.2Z"/><path class="cls-2" d="M61,37.7c0-9.83-5-24.2-12.63-33.5C45.07,1.59,41.48,0,37.7,0,22.07,0,9.41,27.07,9.41,42.7a28.14,28.14,0,0,0,5.95,17.35A28.29,28.29,0,0,0,61,37.7Z"/><path class="cls-3" d="M27.84,15.22a8.45,8.45,0,0,1,6.41-6.49c3.1-.7,1.82-6.1-1.28-5.41C28.19,4.38,24.5,8.57,23.12,13.9c-.91,3.51,3.82,4.84,4.72,1.32Z"/><rect class="cls-3" x="37.41" y="1.5" width="5.29" height="5.29" rx="2.64" transform="translate(0.64 -4.09) rotate(5.89)"/><circle class="cls-4" cx="47.5" cy="16.5" r="3.5"/><circle class="cls-4" cx="37.5" cy="59.5" r="3.5"/><circle class="cls-4" cx="20.5" cy="50.5" r="3.5"/><circle class="cls-4" cx="47.5" cy="35.5" r="2.5"/><circle class="cls-4" cx="21" cy="30" r="2"/><circle class="cls-4" cx="52.5" cy="52.5" r="2.5"/><circle class="cls-4" cx="35.5" cy="16.5" r="1.5"/><circle class="cls-5" cx="62.5" cy="46.5" r="1.5"/><circle class="cls-5" cx="45.5" cy="66.5" r="2.5"/></g></svg>