<svg xmlns="http://www.w3.org/2000/svg" viewBox="0 0 71 71"><defs><style>.cls-1{fill:#ff3636;}.cls-2{fill:#fff;}.cls-3{fill:#a51616;}</style></defs><title>Heart</title><g id="Layer_25" data-name="Layer 25"><path class="cls-1" d="M69.56,17.9A19,19,0,0,0,36,14.6,19.1,19.1,0,0,0,1,25.23,19.28,19.28,0,0,0,4.65,36.54l3.06,3.33L31,60.56a7.54,7.54,0,0,0,10,0L64.29,39.87l3.06-3.33A19.36,19.36,0,0,0,69.56,17.9Z"/><path class="cls-2" d="M12.21,26.31A9.38,9.38,0,0,1,18,17.81c3.51-1.6.46-6.78-3-5.18A15.26,15.26,0,0,0,6.21,26.31c-.1,3.86,5.9,3.86,6,0Z"/><rect class="cls-3" x="33.02" y="42.53" width="24.05" height="9" rx="4.5" transform="translate(-19.93 42.67) rotate(-42.4)"/><rect class="cls-3" x="54.6" y="28.95" width="9" height="9" rx="4.5" transform="translate(-7.1 48.6) rotate(-42.4)"/></g></svg>