<svg xmlns="http://www.w3.org/2000/svg" viewBox="0 0 127.5 68"><defs><style>.cls-1{fill:#fff;}.cls-2{fill:#a51616;}.cls-3{fill:#ffd2d2;}.cls-4{fill:#ff3636;}.cls-5{fill:#b4c8bc;}.cls-6{fill:#cecece;}.cls-7{fill:#7c0808;}.cls-8{fill:#c94c4c;}</style></defs><title>Meat</title><g id="Layer_25" data-name="Layer 25"><path class="cls-1" d="M111.45,67.89a7.54,7.54,0,0,0,6.49-13,7.55,7.55,0,1,0-9.62-9.61L55.19,34.75,52.26,49.6l53.13,10.49A7.53,7.53,0,0,0,111.45,67.89Z"/><path class="cls-2" d="M23.84,2.07C37,7.43,59,18.31,73.86,36a17.31,17.31,0,0,0,3.79,3.41h0l-.22,1.13-.05.24L75.27,51.42h0l-.48,2.43h0A17.35,17.35,0,0,0,70,55.57C49.44,66.27,25,68,10.74,67.92a2.57,2.57,0,0,1-2.5-3.07L20.36,4A2.56,2.56,0,0,1,23.84,2.07Z"/><ellipse class="cls-3" cx="15.9" cy="34.71" rx="34" ry="10.4" transform="matrix(0.19, -0.98, 0.98, 0.19, -21.24, 43.58)"/><ellipse class="cls-4" cx="13.99" cy="34.33" rx="34" ry="10.4" transform="translate(-22.4 41.41) rotate(-78.83)"/><ellipse class="cls-2" cx="13.99" cy="34.33" rx="19.3" ry="5.41" transform="translate(-22.4 41.41) rotate(-78.83)"/><ellipse class="cls-5" cx="13.99" cy="34.33" rx="10.11" ry="2.84" transform="translate(-22.4 41.41) rotate(-78.83)"/><rect class="cls-6" x="76.21" y="50" width="18.82" height="4.49" rx="2.25" transform="translate(159.58 119.99) rotate(-168.9)"/><rect class="cls-6" x="95.38" y="52.49" width="5.88" height="4.49" rx="2.25" transform="translate(184.27 127.38) rotate(-168.9)"/><rect class="cls-7" x="20.78" y="57.73" width="18.82" height="4.49" rx="2.25" transform="translate(66.65 116.36) rotate(173.83)"/><rect class="cls-7" x="63.82" y="49.61" width="5.88" height="4.49" rx="2.25" transform="translate(146.69 79.37) rotate(161.17)"/><rect class="cls-7" x="53.1" y="52.19" width="9.31" height="4.49" rx="2.25" transform="translate(128.02 91.33) rotate(164.39)"/><rect class="cls-7" x="42.02" y="55.25" width="9.31" height="4.49" rx="2.25" transform="translate(104.49 103.76) rotate(167.74)"/><rect class="cls-8" x="31.49" y="9.95" width="9.31" height="4.49" rx="2.25" transform="translate(11.63 -17.03) rotate(31.37)"/><rect class="cls-8" x="41.28" y="15.97" width="9.31" height="4.49" rx="2.25" transform="translate(18.56 -22.92) rotate(34.72)"/><rect class="cls-6" x="116.2" y="44.37" width="5.88" height="4.49" rx="2.25" transform="translate(126.45 174.34) rotate(-114.65)"/><rect class="cls-6" x="113.87" y="56.14" width="5.88" height="4.49" rx="2.25" transform="translate(112.47 188.91) rotate(-114.65)"/></g></svg>