<svg xmlns="http://www.w3.org/2000/svg" viewBox="0 0 159 97"><defs><style>.cls-1{fill:#247396;}.cls-2{fill:#1c5e75;}.cls-3{fill:#2f9bc1;}.cls-4{fill:#b4c8bc;}.cls-5{fill:#87998e;}.cls-6{fill:#fff;}.cls-7{fill:#5c6d62;}</style></defs><title>Random Reward Box Opened</title><g id="Layer_25" data-name="Layer 25"><rect class="cls-1" x="8.23" y="5.43" width="61" height="36"/><path class="cls-1" d="M7.54,41.62a25.49,25.49,0,0,0,36.06,0l.35-.35L7.89,5.21l-.35.35A25.49,25.49,0,0,0,7.54,41.62Z"/><path class="cls-2" d="M10.37,38.79a21.56,21.56,0,0,0,30.51,0l.3-.3L10.67,8l-.3.3A21.56,21.56,0,0,0,10.37,38.79Z"/><path class="cls-3" d="M68.54,41.62a25.49,25.49,0,0,0,36.06,0l.35-.35L68.89,5.21l-.35.35A25.49,25.49,0,0,0,68.54,41.62Z"/><path class="cls-2" d="M71.37,38.79a21.56,21.56,0,0,0,30.51,0l.3-.3L71.67,8l-.3.3A21.56,21.56,0,0,0,71.37,38.79Z"/><path class="cls-4" d="M69.56,1.19,69.83,1a4.52,4.52,0,0,0-2.1-.54H8.5l4.72,5H68.36A4.48,4.48,0,0,1,69.56,1.19Z"/><path class="cls-5" d="M71.38,2.32l-1-1A4.21,4.21,0,0,0,69.83,1l-.27.22a4.48,4.48,0,0,0-1.2,4.24,4.43,4.43,0,0,0,1.17,2.12l35.85,36.27a4.49,4.49,0,0,0,6.36,0,3.89,3.89,0,0,0,.32-.39Z"/><path class="cls-5" d="M13.22,5.43,8.5.43h0L8.33.56,8.1.73A4.51,4.51,0,0,0,7.91,7.1l35,37.1a4.5,4.5,0,0,0,6.36.18c.12-.12.22-.25.33-.38Z"/><rect class="cls-6" x="28.53" y="-6.87" width="2.3" height="18.9" rx="1.15" transform="translate(32.26 -27.1) rotate(90)"/><rect class="cls-6" x="42.85" y="0.58" width="2.3" height="4.01" rx="1.15" transform="translate(46.58 -41.42) rotate(90)"/><rect class="cls-3" x="91" y="38" width="64" height="59"/><rect class="cls-1" x="40" y="38" width="51" height="59"/><rect class="cls-2" x="44" y="38" width="43" height="55"/><rect class="cls-1" x="95" y="38" width="56" height="55"/><path class="cls-5" d="M96,38a4.48,4.48,0,0,1-4.45,4h63A4.48,4.48,0,0,0,159,38Z"/><path class="cls-7" d="M96,38H36.05a4.48,4.48,0,0,0,4.45,4h51A4.48,4.48,0,0,0,96,38Z"/><path class="cls-6" d="M124.64,52.18c5.42,0,10.76,2.5,10.76,8.48,0,5.51-6.31,7.63-7.67,9.62-1,1.48-.67,3.56-3.47,3.56A2.7,2.7,0,0,1,121.55,71c0-5,7.41-6.19,7.41-10.34,0-2.29-1.52-3.64-4.07-3.64-5.42,0-3.3,5.59-7.41,5.59A2.54,2.54,0,0,1,114.72,60C114.72,55.87,119.47,52.18,124.64,52.18Zm-.21,24.41A3.48,3.48,0,1,1,121,80.07,3.49,3.49,0,0,1,124.43,76.59Z"/><rect class="cls-1" x="52" y="79" width="32" height="3" rx="1.5"/><rect class="cls-1" x="46" y="51" width="32" height="3" rx="1.5"/><rect class="cls-1" x="15.24" y="28.42" width="12" height="3" rx="1.5" transform="translate(15.01 66.09) rotate(-134.86)"/><rect class="cls-1" x="7.64" y="23.45" width="6" height="3" rx="1.5" transform="translate(0.47 50.09) rotate(-134.86)"/><rect class="cls-1" x="13.04" y="21.69" width="3" height="3" rx="1.5" transform="translate(8.36 49.85) rotate(-134.86)"/><rect class="cls-1" x="67.76" y="24.58" width="12" height="3" rx="1.5" transform="translate(40.21 -44.6) rotate(45.14)"/><rect class="cls-1" x="81.36" y="29.55" width="6" height="3" rx="1.5" transform="translate(46.86 -50.64) rotate(45.14)"/><rect class="cls-1" x="78.96" y="31.31" width="3" height="3" rx="1.5" transform="translate(46.96 -47.37) rotate(45.14)"/><rect class="cls-1" x="79" y="51" width="3" height="3" rx="1.5"/><rect class="cls-1" x="48" y="79" width="3" height="3" rx="1.5"/><rect class="cls-3" x="114" y="85" width="32" height="3" rx="1.5"/><rect class="cls-3" x="99" y="72" width="12" height="3" rx="1.5"/><rect class="cls-3" x="134" y="71" width="12" height="3" rx="1.5"/><rect class="cls-3" x="96" y="52" width="12" height="3" rx="1.5"/><rect class="cls-3" x="134" y="46" width="6" height="3" rx="1.5"/><rect class="cls-3" x="109" y="52" width="6" height="3" rx="1.5"/><rect class="cls-3" x="112" y="72" width="3" height="3" rx="1.5"/><rect class="cls-3" x="29" y="18" width="12" height="3" rx="1.5"/><rect class="cls-3" x="40" y="27" width="20" height="3" rx="1.5"/><rect class="cls-3" x="49" y="9" width="11" height="3" rx="1.5"/><rect class="cls-3" x="41" y="9" width="4" height="3" rx="1.5"/><rect class="cls-3" x="43" y="18" width="3" height="3" rx="1.5"/><rect class="cls-3" x="109" y="85" width="3" height="3" rx="1.5"/><rect class="cls-3" x="142" y="46" width="3" height="3" rx="1.5"/></g></svg>