<svg xmlns="http://www.w3.org/2000/svg" viewBox="0 0 159 97"><defs><style>.cls-1{fill:#2f9bc1;}.cls-2{fill:#247396;}.cls-3{fill:#1c5e75;}.cls-4{fill:#b4c8bc;}.cls-5{fill:#87998e;}.cls-6{fill:#5c6d62;}.cls-7{fill:#fff;}.cls-8{fill:#43b3d1;}</style></defs><title>Random Reward Box Closed</title><g id="Layer_25" data-name="Layer 25"><rect class="cls-1" x="91" y="38" width="64" height="59"/><path class="cls-1" d="M40,37.5h0A25.5,25.5,0,0,1,65.5,12h64C143.59,12,155,23.92,155,38H40"/><rect class="cls-2" x="40" y="38" width="51" height="59"/><rect class="cls-3" x="44" y="38" width="43" height="55"/><rect class="cls-2" x="95" y="38" width="56" height="55"/><path class="cls-2" d="M65.5,12A25.5,25.5,0,0,0,40,37.5V38H91v-.5A25.5,25.5,0,0,0,65.5,12Z"/><path class="cls-3" d="M65.5,16A21.58,21.58,0,0,0,43.92,37.58V38H87.08v-.42A21.58,21.58,0,0,0,65.5,16Z"/><path class="cls-4" d="M96,37.5a4.23,4.23,0,0,1,0,.5h63a4.23,4.23,0,0,0,.05-.5,4.49,4.49,0,0,0-4.5-4.5h-63A4.49,4.49,0,0,1,96,37.5Z"/><path class="cls-5" d="M96,38a4.48,4.48,0,0,1-4.45,4h63A4.48,4.48,0,0,0,159,38Z"/><path class="cls-6" d="M96,38H36.05a4.48,4.48,0,0,0,4.45,4h51A4.48,4.48,0,0,0,96,38Z"/><path class="cls-5" d="M96,37.5A4.49,4.49,0,0,0,91.5,33h-51A4.49,4.49,0,0,0,36,37.5a4.23,4.23,0,0,0,0,.5H96A4.23,4.23,0,0,0,96,37.5Z"/><rect class="cls-7" x="139.3" y="25.7" width="2.3" height="18.9" rx="1.15" transform="translate(175.6 -105.3) rotate(90)"/><rect class="cls-7" x="153.62" y="33.15" width="2.3" height="4.01" rx="1.15" transform="translate(189.92 -119.62) rotate(90)"/><path class="cls-7" d="M124.64,52.18c5.42,0,10.76,2.5,10.76,8.48,0,5.51-6.31,7.63-7.67,9.62-1,1.48-.67,3.56-3.47,3.56A2.7,2.7,0,0,1,121.55,71c0-5,7.41-6.19,7.41-10.34,0-2.29-1.52-3.64-4.07-3.64-5.42,0-3.3,5.59-7.41,5.59A2.54,2.54,0,0,1,114.72,60C114.72,55.87,119.47,52.18,124.64,52.18Zm-.21,24.41A3.48,3.48,0,1,1,121,80.07,3.49,3.49,0,0,1,124.43,76.59Z"/><rect class="cls-2" x="52" y="79" width="32" height="3" rx="1.5"/><rect class="cls-2" x="46" y="51" width="32" height="3" rx="1.5"/><rect class="cls-2" x="54" y="25" width="12" height="3" rx="1.5"/><rect class="cls-2" x="68" y="21" width="6" height="3" rx="1.5"/><rect class="cls-2" x="68" y="25" width="3" height="3" rx="1.5"/><rect class="cls-2" x="79" y="51" width="3" height="3" rx="1.5"/><rect class="cls-2" x="48" y="79" width="3" height="3" rx="1.5"/><rect class="cls-1" x="115" y="85" width="32" height="3" rx="1.5"/><rect class="cls-1" x="100" y="72" width="12" height="3" rx="1.5"/><rect class="cls-1" x="135" y="71" width="12" height="3" rx="1.5"/><rect class="cls-1" x="97" y="52" width="12" height="3" rx="1.5"/><rect class="cls-1" x="135" y="46" width="6" height="3" rx="1.5"/><rect class="cls-1" x="110" y="52" width="6" height="3" rx="1.5"/><rect class="cls-1" x="113" y="72" width="3" height="3" rx="1.5"/><rect class="cls-1" x="110" y="85" width="3" height="3" rx="1.5"/><rect class="cls-1" x="143" y="46" width="3" height="3" rx="1.5"/><rect class="cls-8" x="86" y="16" width="32" height="3" rx="1.5"/><rect class="cls-8" x="115" y="26" width="32" height="3" rx="1.5"/><rect class="cls-8" x="102" y="26" width="12" height="3" rx="1.5"/><rect class="cls-8" x="122" y="16" width="3" height="3" rx="1.5"/><rect class="cls-8" x="134" y="16" width="3" height="3" rx="1.5"/></g></svg>