<svg xmlns="http://www.w3.org/2000/svg" viewBox="0 0 178 308"><defs><style>.cls-1{fill:#c41616;}.cls-2{fill:#ff3636;}.cls-3{fill:#3d5363;}.cls-4{fill:#c4c4c4;}.cls-5{fill:#fff;}</style></defs><title>Red Flag</title><g id="Layer_25" data-name="Layer 25"><path class="cls-1" d="M85,30.5a15.5,15.5,0,0,1-31,0v89a15.5,15.5,0,0,0,31,0v-89Z"/><path class="cls-1" d="M147,30.5a15.5,15.5,0,0,1-31,0v89a15.5,15.5,0,0,0,31,0v-89Z"/><path class="cls-2" d="M100.5,103A15.5,15.5,0,0,1,116,118.5v-89a15.5,15.5,0,0,0-31,0v89A15.5,15.5,0,0,1,100.5,103Z"/><path class="cls-2" d="M38.5,103A15.5,15.5,0,0,1,54,118.5v-89A15.5,15.5,0,0,0,38.5,14c-.17,0-.33,0-.5,0v0H23V87.5A15.5,15.5,0,0,0,38.5,103Z"/><path class="cls-2" d="M163,14c-.17,0-.33,0-.5,0A15.5,15.5,0,0,0,147,29.5v89A15.5,15.5,0,0,1,162.5,103,15.5,15.5,0,0,0,178,87.5V14H163Z"/><rect class="cls-3" width="23" height="308" rx="11.5"/><rect class="cls-4" x="4" y="46.54" width="7" height="127.46" rx="3.5"/><rect class="cls-4" x="4" y="14" width="7" height="18.98" rx="3.5"/><rect class="cls-4" x="4" y="196.54" width="7" height="67.46" rx="3.5"/><rect class="cls-5" x="26" y="34" width="7" height="47" rx="3.5"/><rect class="cls-5" x="26" y="22" width="7" height="7" rx="3.5"/><rect class="cls-5" x="152" y="23" width="7" height="7" rx="3.5"/><rect class="cls-5" x="152" y="37" width="7" height="7" rx="3.5"/><rect class="cls-5" x="90" y="46" width="7" height="33" rx="3.5"/><rect class="cls-5" x="90" y="22" width="7" height="7" rx="3.5"/><rect class="cls-5" x="90" y="34" width="7" height="7" rx="3.5"/></g></svg>