<svg xmlns="http://www.w3.org/2000/svg" viewBox="0 0 159 97"><defs><style>.cls-1{fill:#975024;}.cls-2{fill:#af5e3a;}.cls-3{fill:#84431f;}.cls-4{fill:#d6703c;}.cls-5{fill:#b4c8bc;}.cls-6{fill:#87998e;}.cls-7{fill:#fff;}.cls-8{fill:#5c6d62;}</style></defs><title>Reward Box Opened</title><g id="Layer_25" data-name="Layer 25"><rect class="cls-1" x="8.23" y="5.43" width="61" height="36"/><path class="cls-2" d="M7.54,41.62a25.49,25.49,0,0,0,36.06,0l.35-.35L7.89,5.21l-.35.35A25.49,25.49,0,0,0,7.54,41.62Z"/><path class="cls-3" d="M10.37,38.79a21.56,21.56,0,0,0,30.51,0l.3-.3L10.67,8l-.3.3A21.56,21.56,0,0,0,10.37,38.79Z"/><circle class="cls-2" cx="12.84" cy="24.3" r="2"/><circle class="cls-2" cx="12.07" cy="32.52" r="1.27"/><path class="cls-4" d="M68.54,41.62a25.49,25.49,0,0,0,36.06,0l.35-.35L68.89,5.21l-.35.35A25.49,25.49,0,0,0,68.54,41.62Z"/><path class="cls-3" d="M71.37,38.79a21.56,21.56,0,0,0,30.51,0l.3-.3L71.67,8l-.3.3A21.56,21.56,0,0,0,71.37,38.79Z"/><circle class="cls-2" cx="73.84" cy="24.3" r="2"/><circle class="cls-2" cx="73.07" cy="32.52" r="1.27"/><circle class="cls-2" cx="50.73" cy="18.93" r="3.5"/><circle class="cls-2" cx="46.23" cy="32.43" r="2"/><circle class="cls-2" cx="26.96" cy="9.08" r="1.27"/><circle class="cls-2" cx="49.96" cy="22.08" r="1.27"/><path class="cls-5" d="M69.56,1.19,69.83,1a4.52,4.52,0,0,0-2.1-.54H8.5l4.72,5H68.36A4.48,4.48,0,0,1,69.56,1.19Z"/><path class="cls-6" d="M71.38,2.32l-1-1A4.21,4.21,0,0,0,69.83,1l-.27.22a4.48,4.48,0,0,0-1.2,4.24,4.43,4.43,0,0,0,1.17,2.12l35.85,36.27a4.49,4.49,0,0,0,6.36,0,3.89,3.89,0,0,0,.32-.39Z"/><path class="cls-6" d="M13.22,5.43,8.5.43h0L8.33.56,8.1.73A4.51,4.51,0,0,0,7.91,7.1l35,37.1a4.5,4.5,0,0,0,6.36.18c.12-.12.22-.25.33-.38Z"/><rect class="cls-7" x="28.53" y="-6.87" width="2.3" height="18.9" rx="1.15" transform="matrix(0, 1, -1, 0, 32.26, -27.1)"/><rect class="cls-7" x="42.85" y="0.58" width="2.3" height="4.01" rx="1.15" transform="translate(46.58 -41.42) rotate(90)"/><rect class="cls-4" x="91" y="38" width="64" height="59"/><rect class="cls-2" x="40" y="38" width="51" height="59"/><rect class="cls-3" x="44" y="38" width="43" height="55"/><rect class="cls-1" x="95" y="38" width="56" height="55"/><path class="cls-6" d="M96,38a4.48,4.48,0,0,1-4.45,4h63A4.48,4.48,0,0,0,159,38Z"/><path class="cls-8" d="M96,38H36.05a4.48,4.48,0,0,0,4.45,4h51A4.48,4.48,0,0,0,96,38Z"/><circle class="cls-4" cx="107.5" cy="51.5" r="3.5"/><circle class="cls-4" cx="104" cy="89" r="2"/><circle class="cls-4" cx="136" cy="51" r="2"/><circle class="cls-4" cx="118.73" cy="64.65" r="1.27"/><circle class="cls-4" cx="135.73" cy="83.65" r="1.27"/><circle class="cls-4" cx="134.73" cy="55.65" r="1.27"/><circle class="cls-2" cx="53.5" cy="48.5" r="3.5"/><circle class="cls-2" cx="80.5" cy="86.5" r="3.5"/><circle class="cls-2" cx="67" cy="72" r="2"/><circle class="cls-2" cx="77" cy="54" r="2"/><circle class="cls-2" cx="58.73" cy="87.65" r="1.27"/><circle class="cls-2" cx="82.73" cy="43.65" r="1.27"/><circle class="cls-2" cx="55.73" cy="65.65" r="1.27"/><circle class="cls-2" cx="78.73" cy="65.65" r="1.27"/><circle class="cls-4" cx="142.73" cy="61.65" r="1.27"/><path class="cls-7" d="M136.65,64.77a1.78,1.78,0,0,0-1-3l-6-.88a.75.75,0,0,1-.59-.42L126.38,55a1.78,1.78,0,0,0-3.19,0l-2.69,5.45a.78.78,0,0,1-.59.43l-6,.87A1.77,1.77,0,0,0,112.47,63a1.74,1.74,0,0,0,.45,1.82L117.26,69a.79.79,0,0,1,.23.7l-1,6a1.74,1.74,0,0,0,.39,1.44,1.8,1.8,0,0,0,2.2.43l5.37-2.82a.79.79,0,0,1,.73,0l5.37,2.82a1.73,1.73,0,0,0,.83.21,1.79,1.79,0,0,0,1.37-.64,1.74,1.74,0,0,0,.38-1.44l-1-6a.78.78,0,0,1,.22-.7Z"/></g></svg>