<svg xmlns="http://www.w3.org/2000/svg" viewBox="0 0 159 97"><defs><style>.cls-1{fill:#d6703c;}.cls-2{fill:#e58053;}.cls-3{fill:#af5e3a;}.cls-4{fill:#84431f;}.cls-5{fill:#975024;}.cls-6{fill:#b4c8bc;}.cls-7{fill:#87998e;}.cls-8{fill:#5c6d62;}.cls-9{fill:#f49d7a;}.cls-10{fill:#fff;}</style></defs><title>Reward Box Closed</title><g id="Layer_25" data-name="Layer 25"><rect class="cls-1" x="91" y="38" width="64" height="59"/><path class="cls-2" d="M40,37.5h0A25.5,25.5,0,0,1,65.5,12h64C143.59,12,155,23.92,155,38H40"/><rect class="cls-3" x="40" y="38" width="51" height="59"/><rect class="cls-4" x="44" y="38" width="43" height="55"/><rect class="cls-5" x="95" y="38" width="56" height="55"/><path class="cls-3" d="M65.5,12A25.5,25.5,0,0,0,40,37.5V38H91v-.5A25.5,25.5,0,0,0,65.5,12Z"/><path class="cls-4" d="M65.5,16A21.58,21.58,0,0,0,43.92,37.58V38H87.08v-.42A21.58,21.58,0,0,0,65.5,16Z"/><path class="cls-6" d="M96,37.5a4.23,4.23,0,0,1,0,.5h63a4.23,4.23,0,0,0,.05-.5,4.49,4.49,0,0,0-4.5-4.5h-63A4.49,4.49,0,0,1,96,37.5Z"/><path class="cls-7" d="M96,38a4.48,4.48,0,0,1-4.45,4h63A4.48,4.48,0,0,0,159,38Z"/><path class="cls-8" d="M96,38H36.05a4.48,4.48,0,0,0,4.45,4h51A4.48,4.48,0,0,0,96,38Z"/><path class="cls-7" d="M96,37.5A4.49,4.49,0,0,0,91.5,33h-51A4.49,4.49,0,0,0,36,37.5a4.23,4.23,0,0,0,0,.5H96A4.23,4.23,0,0,0,96,37.5Z"/><circle class="cls-1" cx="107.5" cy="51.5" r="3.5"/><circle class="cls-1" cx="104" cy="89" r="2"/><circle class="cls-1" cx="136" cy="51" r="2"/><circle class="cls-9" cx="130" cy="18" r="2"/><circle class="cls-9" cx="113" cy="20" r="2"/><circle class="cls-9" cx="85" cy="16" r="2"/><circle class="cls-1" cx="118.73" cy="64.65" r="1.27"/><circle class="cls-1" cx="135.73" cy="83.65" r="1.27"/><circle class="cls-9" cx="98.73" cy="29.65" r="1.27"/><circle class="cls-9" cx="137.73" cy="26.65" r="1.27"/><circle class="cls-9" cx="116.73" cy="27.65" r="1.27"/><circle class="cls-9" cx="135.73" cy="18.65" r="1.27"/><circle class="cls-1" cx="134.73" cy="55.65" r="1.27"/><circle class="cls-3" cx="53.5" cy="48.5" r="3.5"/><circle class="cls-3" cx="80.5" cy="86.5" r="3.5"/><circle class="cls-3" cx="74" cy="28" r="2"/><circle class="cls-3" cx="67" cy="72" r="2"/><circle class="cls-3" cx="77" cy="54" r="2"/><circle class="cls-3" cx="58.73" cy="87.65" r="1.27"/><circle class="cls-3" cx="82.73" cy="43.65" r="1.27"/><circle class="cls-3" cx="55.73" cy="65.65" r="1.27"/><circle class="cls-3" cx="68.73" cy="21.65" r="1.27"/><circle class="cls-3" cx="54.73" cy="25.65" r="1.27"/><circle class="cls-3" cx="78.73" cy="65.65" r="1.27"/><circle class="cls-1" cx="142.73" cy="61.65" r="1.27"/><rect class="cls-10" x="139.3" y="25.7" width="2.3" height="18.9" rx="1.15" transform="translate(175.6 -105.3) rotate(90)"/><rect class="cls-10" x="153.62" y="33.15" width="2.3" height="4.01" rx="1.15" transform="translate(189.92 -119.62) rotate(90)"/><path class="cls-10" d="M136.65,64.77a1.78,1.78,0,0,0-1-3l-6-.88a.75.75,0,0,1-.59-.42L126.38,55a1.78,1.78,0,0,0-3.19,0l-2.69,5.45a.78.78,0,0,1-.59.43l-6,.87A1.77,1.77,0,0,0,112.47,63a1.74,1.74,0,0,0,.45,1.82L117.26,69a.79.79,0,0,1,.23.7l-1,6a1.74,1.74,0,0,0,.39,1.44,1.8,1.8,0,0,0,2.2.43l5.37-2.82a.79.79,0,0,1,.73,0l5.37,2.82a1.73,1.73,0,0,0,.83.21,1.79,1.79,0,0,0,1.37-.64,1.74,1.74,0,0,0,.38-1.44l-1-6a.78.78,0,0,1,.22-.7Z"/></g></svg>