<svg xmlns="http://www.w3.org/2000/svg" viewBox="0 0 71 71"><defs><style>.cls-1{fill:#eaeaea;}.cls-2{fill:#9b9b9b;}.cls-3{fill:#c4c4c4;}.cls-4{fill:#fff;}</style></defs><title>Silver Coin</title><g id="Layer_25" data-name="Layer 25"><path class="cls-1" d="M32.33,1a26.29,26.29,0,0,0-8.82,1.53H41.15A26.29,26.29,0,0,0,32.33,1Z"/><path class="cls-1" d="M2.49,35.53c0,1.36.08,2.7.21,4H62a37.76,37.76,0,0,0,.21-4,41.06,41.06,0,0,0-.34-5.24h-59A41.06,41.06,0,0,0,2.49,35.53Z"/><path class="cls-1" d="M32.33,70.06A26.27,26.27,0,0,0,44,67.3H20.63A26.23,26.23,0,0,0,32.33,70.06Z"/><path class="cls-1" d="M9.72,58.05H54.94a36,36,0,0,0,5-9.25H4.78A36,36,0,0,0,9.72,58.05Z"/><path class="cls-1" d="M10.68,11.79A35,35,0,0,0,5.25,21H59.42A35.53,35.53,0,0,0,54,11.79Z"/><path class="cls-2" d="M41.15,2.53H23.51a29.68,29.68,0,0,0-12.83,9.26H54A29.71,29.71,0,0,0,41.15,2.53Z"/><path class="cls-2" d="M2.83,30.29h59A38.69,38.69,0,0,0,59.42,21H5.25A38.24,38.24,0,0,0,2.83,30.29Z"/><path class="cls-2" d="M4.78,48.8H59.89A38.77,38.77,0,0,0,62,39.54H2.7A38.3,38.3,0,0,0,4.78,48.8Z"/><path class="cls-2" d="M20.63,67.3H44a30.71,30.71,0,0,0,10.9-9.25H9.72A30.66,30.66,0,0,0,20.63,67.3Z"/><ellipse class="cls-3" cx="39.27" cy="35.53" rx="29.84" ry="34.53"/><path class="cls-4" d="M26.35,27.07a10.36,10.36,0,0,1,7-8.71c3.7-1.23,1.47-7.67-2.22-6.45-5.7,1.89-9.7,7.45-10.73,14.13-.68,4.39,5.25,5.43,5.93,1Z"/><path class="cls-2" d="M40.71,7.37V6.25a1,1,0,0,0-.93-1.08H38.49a1,1,0,0,0-.94,1.08V7.34c.46,0,.91,0,1.38,0S40.12,7.32,40.71,7.37Z"/><path class="cls-2" d="M37.55,63v2.13a1,1,0,0,0,.94,1.08h1.29a1,1,0,0,0,.93-1.08V63c-.59.05-1.18.08-1.78.08S38,63,37.55,63Z"/><path class="cls-2" d="M64.57,33.86H63c0,.43,0,.87,0,1.31,0,.79,0,1.57-.09,2.35h1.64a1,1,0,0,0,.94-1.09V34.94A1,1,0,0,0,64.57,33.86Z"/><path class="cls-2" d="M14.86,33.86H13.69a1,1,0,0,0-.93,1.08v1.49a1,1,0,0,0,.93,1.09h1.23c-.05-.78-.09-1.56-.09-2.35C14.83,34.73,14.84,34.29,14.86,33.86Z"/><path class="cls-2" d="M57.34,17.2l.9-1a1.21,1.21,0,0,0,0-1.54l-.91-1.05a.86.86,0,0,0-1.33,0l-.85,1A26.67,26.67,0,0,1,57.34,17.2Z"/><path class="cls-2" d="M21.12,54,20,55.21a1.21,1.21,0,0,0,0,1.54l.91,1a.85.85,0,0,0,1.32,0l1.14-1.32A25,25,0,0,1,21.12,54Z"/><path class="cls-2" d="M54.67,56.26,56,57.8a.86.86,0,0,0,1.33,0l.91-1a1.21,1.21,0,0,0,0-1.54l-1.31-1.52A25.32,25.32,0,0,1,54.67,56.26Z"/><path class="cls-2" d="M22.92,14.34l-.66-.76a.85.85,0,0,0-1.32,0L20,14.63a1.21,1.21,0,0,0,0,1.54l.67.78A25.45,25.45,0,0,1,22.92,14.34Z"/><path class="cls-2" d="M50.26,9.15a1.14,1.14,0,0,0-.51-1.41l-1.19-.57a.91.91,0,0,0-1.23.59l-.39,1.11a23.2,23.2,0,0,1,2.91,1.45Z"/><path class="cls-2" d="M28,62.23a1.14,1.14,0,0,0,.51,1.41l1.19.57a.89.89,0,0,0,1.22-.59l.67-1.88a24.33,24.33,0,0,1-2.94-1.34Z"/><path class="cls-2" d="M62.06,48.56A.9.9,0,0,0,63.29,48l.49-1.37a1.16,1.16,0,0,0-.51-1.42l-1.61-.77a28.79,28.79,0,0,1-1.25,3.37Z"/><path class="cls-2" d="M16.2,22.81a.9.9,0,0,0-1.22.6l-.49,1.37A1.15,1.15,0,0,0,15,26.2l1,.46a29.56,29.56,0,0,1,1.16-3.4Z"/><path class="cls-2" d="M63.22,26a1.16,1.16,0,0,0,.5-1.42l-.5-1.37A.89.89,0,0,0,62,22.65l-1.28.62a31.05,31.05,0,0,1,1.16,3.41Z"/><path class="cls-2" d="M15.05,45.35a1.15,1.15,0,0,0-.5,1.42L15,48.14a.9.9,0,0,0,1.23.59l1.31-.64a30.38,30.38,0,0,1-1.29-3.34Z"/><path class="cls-2" d="M47.48,63.56a.9.9,0,0,0,1.23.58l1.19-.57a1.16,1.16,0,0,0,.5-1.42l-.73-2a22.42,22.42,0,0,1-2.92,1.41Z"/><path class="cls-2" d="M30.78,7.82a.89.89,0,0,0-1.22-.58l-1.19.57a1.15,1.15,0,0,0-.5,1.42l.34,1a20.63,20.63,0,0,1,2.92-1.41Z"/><rect class="cls-2" x="45.04" y="31.02" width="8.37" height="9.69" rx="3.62"/><rect class="cls-4" x="36.65" y="8.8" width="6.48" height="6.48" rx="2.8" transform="translate(0.03 -0.11) rotate(0.16)"/><rect class="cls-2" x="28.05" y="31.02" width="15.47" height="9.69" rx="4.19"/></g></svg>