<svg xmlns="http://www.w3.org/2000/svg" viewBox="0 0 71 71"><defs><style>.cls-1{fill:#e5802c;}.cls-2{fill:#c9660d;}.cls-3{fill:#ef8511;}.cls-4{fill:#f93;}.cls-5{fill:#fff;}</style></defs><title>Star</title><g id="Layer_25" data-name="Layer 25"><path class="cls-1" d="M16.55,64.19a4.3,4.3,0,0,1-1-.86,4.38,4.38,0,0,1-1-3.63l2.58-15.07a2,2,0,0,0-.57-1.75L5.64,32.21a4.47,4.47,0,0,1,2.48-7.64l15.13-2.2a2,2,0,0,0,1.49-1.08L31.51,7.58a4.47,4.47,0,0,1,8,0l6.77,13.7a2,2,0,0,0,1.48,1.09c.39-.65.76-1.28,1.12-1.87a2.26,2.26,0,0,1-1.14-1.08L40.09,3.86a5.09,5.09,0,0,0-9.13,0L23.28,19.42a2.22,2.22,0,0,1-1.69,1.23L4.41,23.15a5.09,5.09,0,0,0-2.83,8.68L14,44a2.21,2.21,0,0,1,.64,2L11.73,63a5,5,0,0,0,1.11,4.13c.09.11.2.2.3.3Q14.85,65.9,16.55,64.19Z"/><path class="cls-2" d="M69.46,31.83a5.09,5.09,0,0,0-2.82-8.68l-17.18-2.5a2.48,2.48,0,0,1-.55-.15c-.36.59-.73,1.22-1.12,1.87h0l15.13,2.19a4.49,4.49,0,0,1,2.49,7.65L54.46,42.88a2,2,0,0,0-.57,1.75L56.47,59.7a4.37,4.37,0,0,1-1,3.63,4.51,4.51,0,0,1-3.44,1.61A4.4,4.4,0,0,1,50,64.42L36.44,57.31a2,2,0,0,0-1.84,0L21.07,64.42a4.51,4.51,0,0,1-4.52-.23q-1.7,1.71-3.41,3.28a5.13,5.13,0,0,0,6,.94l15.37-8.08a2.3,2.3,0,0,1,2.09,0l15.36,8.08a5.08,5.08,0,0,0,6.28-1.24A5,5,0,0,0,59.32,63L56.38,45.93A2.25,2.25,0,0,1,57,44Z"/><path class="cls-3" d="M21.07,64.42,34.6,57.31a2,2,0,0,1,1.84,0L50,64.42a4.4,4.4,0,0,0,2.09.52,4.51,4.51,0,0,0,3.44-1.61,4.37,4.37,0,0,0,1-3.63L53.89,44.63a2,2,0,0,1,.57-1.75L65.41,32.21a4.49,4.49,0,0,0-2.49-7.65L47.79,22.37h0c-6.72,11.1-18.46,29-31.24,41.82A4.51,4.51,0,0,0,21.07,64.42Z"/><path class="cls-4" d="M46.31,21.28,39.54,7.58a4.47,4.47,0,0,0-8,0L24.74,21.29a2,2,0,0,1-1.49,1.08L8.12,24.57a4.47,4.47,0,0,0-2.48,7.64L16.58,42.88a2,2,0,0,1,.57,1.75L14.57,59.7a4.38,4.38,0,0,0,1,3.63,4.3,4.3,0,0,0,1,.86c12.78-12.8,24.52-30.72,31.24-41.82A2,2,0,0,1,46.31,21.28Z"/><rect class="cls-5" x="25.78" y="15.87" width="10.98" height="4.19" rx="2.06" transform="translate(60.19 -3.58) rotate(113.43)"/><rect class="cls-5" x="7.99" y="25.39" width="10.98" height="4.21" rx="2.06" transform="translate(30.55 52.92) rotate(172.26)"/><rect class="cls-5" x="32.56" y="8.93" width="3.43" height="4.19" rx="1.68" transform="translate(58.02 -16.03) rotate(113.43)"/><rect class="cls-2" x="37.9" y="55.24" width="10.98" height="4.31" rx="2.11" transform="translate(54.45 128.5) rotate(-151.75)"/><rect class="cls-2" x="50.26" y="33.55" width="10.98" height="4.76" rx="2.33" transform="translate(120.59 21.91) rotate(135)"/><rect class="cls-2" x="48.33" y="58.82" width="3.43" height="4.31" rx="1.68" transform="translate(65.28 138.38) rotate(-151.75)"/></g></svg>