<svg xmlns="http://www.w3.org/2000/svg" viewBox="0 0 178 309"><defs><style>.cls-1{fill:#b7b7b7;}.cls-2{fill:#ddd;}.cls-3{fill:#3d5363;}.cls-4{fill:#896a6a;}.cls-5{fill:#fff;}</style></defs><title>White Flag</title><g id="Layer_25" data-name="Layer 25"><path class="cls-1" d="M85,31.5a15.5,15.5,0,0,1-31,0v89a15.5,15.5,0,0,0,31,0v-89Z"/><path class="cls-1" d="M147,31.5a15.5,15.5,0,0,1-31,0v89a15.5,15.5,0,0,0,31,0v-89Z"/><path class="cls-2" d="M100.5,104A15.5,15.5,0,0,1,116,119.5v-89a15.5,15.5,0,0,0-31,0v89A15.5,15.5,0,0,1,100.5,104Z"/><path class="cls-2" d="M38.5,104A15.5,15.5,0,0,1,54,119.5v-89A15.5,15.5,0,0,0,38.5,15c-.17,0-.33,0-.5,0v0H23V88.5A15.5,15.5,0,0,0,38.5,104Z"/><path class="cls-2" d="M163,15c-.17,0-.33,0-.5,0A15.5,15.5,0,0,0,147,30.5v89A15.5,15.5,0,0,1,162.5,104,15.5,15.5,0,0,0,178,88.5V15H163Z"/><rect class="cls-3" y="1" width="23" height="308" rx="11.5"/><rect class="cls-4" x="4" y="47.54" width="7" height="127.46" rx="3.5"/><rect class="cls-4" x="4" y="15" width="7" height="18.98" rx="3.5"/><rect class="cls-4" x="4" y="197.54" width="7" height="67.46" rx="3.5"/><rect class="cls-5" x="26" y="35" width="7" height="47" rx="3.5"/><rect class="cls-5" x="26" y="23" width="7" height="7" rx="3.5"/><rect class="cls-5" x="152" y="24" width="7" height="7" rx="3.5"/><rect class="cls-5" x="152" y="38" width="7" height="7" rx="3.5"/><rect class="cls-5" x="90" y="47" width="7" height="33" rx="3.5"/><rect class="cls-5" x="90" y="23" width="7" height="7" rx="3.5"/><rect class="cls-5" x="90" y="35" width="7" height="7" rx="3.5"/></g></svg>